<svg width="142.222778" height="14.000000" viewBox="0 0 142.223 14" fill="none" xmlns="http://www.w3.org/2000/svg" xmlns:xlink="http://www.w3.org/1999/xlink">
	<desc>
			Created with Pixso.
	</desc>
	<defs/>
	<path id="Vector" d="M11.5886 6.86365L21.8997 2L23.2228 3.31824L15.2385 12L11.5886 8.40906L7.98425 12L0 3.31824L1.32312 2L11.5886 6.86365Z" fill="#2E3438" fill-opacity="1.000000" fill-rule="nonzero"/>
	<path id="made in red collar" d="M28.2208 12L29.7076 12L29.7076 7.29346C29.7076 6.26123 30.4288 5.54688 31.2731 5.54688C32.1002 5.54688 32.671 6.09375 32.671 6.92432L32.671 12L34.1544 12L34.1544 7.13281C34.1544 6.21338 34.715 5.54688 35.6857 5.54688C36.4684 5.54688 37.1178 5.98438 37.1178 7.02002L37.1178 12L38.6012 12L38.6012 6.87988C38.6012 5.1333 37.6271 4.26514 36.2462 4.26514C35.149 4.26514 34.3219 4.7915 33.9528 5.60498L33.8741 5.60498C33.5426 4.771 32.8419 4.26514 31.8199 4.26514C30.8116 4.26514 30.0631 4.76758 29.7418 5.60498L29.6495 5.60498L29.6495 4.36426L28.2208 4.36426L28.2208 12ZM42.5352 12.1675C43.7965 12.1675 44.5074 11.5283 44.7911 10.9575L44.8492 10.9575L44.8492 12L46.3018 12L46.3018 6.92773C46.3018 4.70605 44.5518 4.26514 43.3385 4.26514C41.9576 4.26514 40.6827 4.82227 40.1871 6.21338L41.585 6.53125C41.8038 5.98779 42.3609 5.46826 43.359 5.46826C44.3194 5.46826 44.8116 5.9707 44.8116 6.83545L44.8116 6.86963C44.8116 7.40967 44.2545 7.40283 42.8805 7.56006C41.4347 7.73096 39.9547 8.10693 39.9547 9.84326C39.9547 11.3438 41.0826 12.1675 42.5352 12.1675ZM42.8565 10.9746C42.0157 10.9746 41.4107 10.5986 41.4107 9.86377C41.4107 9.06738 42.1148 8.78369 42.9762 8.66748C43.4581 8.60596 44.6031 8.47607 44.815 8.26074L44.815 9.24512C44.815 10.1509 44.0938 10.9746 42.8565 10.9746ZM50.8604 12.1504C52.2516 12.1504 52.7984 11.2993 53.0685 10.8105L53.1915 10.8105L53.1915 12L54.6441 12L54.6441 1.81787L53.1573 1.81787L53.1573 5.60156L53.0685 5.60156C52.7984 5.12988 52.2926 4.26514 50.8707 4.26514C49.025 4.26514 47.6681 5.72119 47.6681 8.1958C47.6681 10.667 49.0045 12.1504 50.8604 12.1504ZM51.1886 10.8823C49.859 10.8823 49.1685 9.71338 49.1685 8.18213C49.1685 6.66455 49.8453 5.52637 51.1886 5.52637C52.484 5.52637 53.1812 6.58594 53.1812 8.18213C53.1812 9.78857 52.4703 10.8823 51.1886 10.8823ZM59.771 12.1538C61.439 12.1538 62.6148 11.3335 62.9532 10.0894L61.5484 9.83643C61.2784 10.5576 60.6324 10.9268 59.7881 10.9268C58.5132 10.9268 57.6587 10.0996 57.6177 8.62988L63.0489 8.62988L63.0489 8.10352C63.0489 5.3418 61.398 4.26514 59.6685 4.26514C57.5391 4.26514 56.1377 5.88525 56.1377 8.22998C56.1377 10.6021 57.5186 12.1538 59.771 12.1538ZM57.6246 7.51562C57.6827 6.43213 58.4688 5.49219 59.6788 5.49219C60.8306 5.49219 61.586 6.34668 61.5928 7.51562L57.6246 7.51562ZM67.8514 12L69.3382 12L69.3382 4.36426L67.8514 4.36426L67.8514 12ZM68.6033 3.18506C69.116 3.18506 69.5433 2.78857 69.5433 2.2998C69.5433 1.81445 69.116 1.41113 68.6033 1.41113C68.0872 1.41113 67.6634 1.81445 67.6634 2.2998C67.6634 2.78857 68.0872 3.18506 68.6033 3.18506ZM72.5433 7.46436C72.5433 6.24756 73.2884 5.55029 74.324 5.55029C75.3323 5.55029 75.9441 6.21338 75.9441 7.3208L75.9441 12L77.431 12L77.431 7.14307C77.431 5.25293 76.3919 4.26514 74.8299 4.26514C73.6814 4.26514 72.9329 4.79492 72.5774 5.60498L72.4852 5.60498L72.4852 4.36426L71.0564 4.36426L71.0564 12L72.5433 12L72.5433 7.46436ZM82.5675 12L84.0543 12L84.0543 7.33789C84.0543 6.33643 84.8268 5.61523 85.8795 5.61523C86.1871 5.61523 86.5357 5.66992 86.6554 5.70752L86.6554 4.28564C86.505 4.26514 86.2144 4.24805 86.023 4.24805C85.1275 4.24805 84.3619 4.75732 84.0851 5.57764L84.0064 5.57764L84.0064 4.36426L82.5675 4.36426L82.5675 12ZM90.6798 12.1538C92.3478 12.1538 93.5236 11.3335 93.862 10.0894L92.4572 9.83643C92.1872 10.5576 91.5412 10.9268 90.6969 10.9268C89.422 10.9268 88.5675 10.0996 88.5265 8.62988L93.9577 8.62988L93.9577 8.10352C93.9577 5.3418 92.3068 4.26514 90.5773 4.26514C88.4479 4.26514 87.0465 5.88525 87.0465 8.22998C87.0465 10.6021 88.4274 12.1538 90.6798 12.1538ZM88.5333 7.51562C88.5915 6.43213 89.3776 5.49219 90.5875 5.49219C91.7394 5.49219 92.4948 6.34668 92.5016 7.51562L88.5333 7.51562ZM98.1922 12.1504C99.5833 12.1504 100.13 11.2993 100.4 10.8105L100.523 10.8105L100.523 12L101.976 12L101.976 1.81787L100.489 1.81787L100.489 5.60156L100.4 5.60156C100.13 5.12988 99.6243 4.26514 98.2024 4.26514C96.3567 4.26514 94.9998 5.72119 94.9998 8.1958C94.9998 10.667 96.3362 12.1504 98.1922 12.1504ZM98.5203 10.8823C97.1907 10.8823 96.5003 9.71338 96.5003 8.18213C96.5003 6.66455 97.177 5.52637 98.5203 5.52637C99.8157 5.52637 100.513 6.58594 100.513 8.18213C100.513 9.78857 99.802 10.8823 98.5203 10.8823ZM110.456 12.1538C112.261 12.1538 113.43 11.0703 113.594 9.5835L112.148 9.5835C111.96 10.4106 111.318 10.896 110.467 10.896C109.209 10.896 108.399 9.84668 108.399 8.18213C108.399 6.54492 109.226 5.51611 110.467 5.51611C111.413 5.51611 111.988 6.11426 112.148 6.82861L113.594 6.82861C113.437 5.28711 112.179 4.26514 110.443 4.26514C108.289 4.26514 106.898 5.88525 106.898 8.21631C106.898 10.52 108.242 12.1538 110.456 12.1538ZM118.126 12.1538C120.279 12.1538 121.688 10.5781 121.688 8.21631C121.688 5.84082 120.279 4.26514 118.126 4.26514C115.976 4.26514 114.568 5.84082 114.568 8.21631C114.568 10.5781 115.976 12.1538 118.126 12.1538ZM118.133 10.9062C116.725 10.9062 116.068 9.6792 116.068 8.21289C116.068 6.75 116.725 5.50586 118.133 5.50586C119.531 5.50586 120.187 6.75 120.187 8.21289C120.187 9.6792 119.531 10.9062 118.133 10.9062ZM124.548 1.81787L123.061 1.81787L123.061 12L124.548 12L124.548 1.81787ZM127.753 1.81787L126.267 1.81787L126.267 12L127.753 12L127.753 1.81787ZM131.697 12.1675C132.958 12.1675 133.669 11.5283 133.953 10.9575L134.011 10.9575L134.011 12L135.463 12L135.463 6.92773C135.463 4.70605 133.713 4.26514 132.5 4.26514C131.119 4.26514 129.844 4.82227 129.349 6.21338L130.747 6.53125C130.965 5.98779 131.522 5.46826 132.52 5.46826C133.481 5.46826 133.973 5.9707 133.973 6.83545L133.973 6.86963C133.973 7.40967 133.416 7.40283 132.042 7.56006C130.596 7.73096 129.116 8.10693 129.116 9.84326C129.116 11.3438 130.244 12.1675 131.697 12.1675ZM132.018 10.9746C131.177 10.9746 130.572 10.5986 130.572 9.86377C130.572 9.06738 131.276 8.78369 132.138 8.66748C132.62 8.60596 133.765 8.47607 133.977 8.26074L133.977 9.24512C133.977 10.1509 133.255 10.9746 132.018 10.9746ZM137.161 12L138.648 12L138.648 7.33789C138.648 6.33643 139.42 5.61523 140.473 5.61523C140.781 5.61523 141.129 5.66992 141.249 5.70752L141.249 4.28564C141.099 4.26514 140.808 4.24805 140.617 4.24805C139.721 4.24805 138.956 4.75732 138.679 5.57764L138.6 5.57764L138.6 4.36426L137.161 4.36426L137.161 12Z" fill="#2E3438" fill-opacity="1.000000" fill-rule="evenodd"/>
</svg>
